<svg width="1085" height="481" viewBox="0 0 1085 481" fill="none" xmlns="http://www.w3.org/2000/svg">
<g clip-path="url(#clip0_309_2342)">
<path fill-rule="evenodd" clip-rule="evenodd" d="M304.08 422.261C312.61 418.578 336.9 419.881 348.397 420.323L350.905 432.784C339.795 432.973 311.89 434.501 304.402 430.967L304.084 422.261H304.08ZM351.725 420.335C362.94 420.283 385.212 417.898 387.632 424.457C387.314 433.017 383.785 432.837 375.244 432.849C368.149 432.857 360.58 432.933 353.53 432.619L351.725 420.339V420.335ZM302.621 431.019C330.984 437.927 322.723 435.579 350.704 435.619C353.501 469.878 335.369 464.297 296.459 464.301C243.649 464.301 249.972 410.222 291.829 410.275C307.216 410.295 340.233 404.846 346.777 417.344C339.131 417.416 284.035 414.766 302.625 431.019H302.621ZM346.126 410.452C376.148 408.743 420.983 403.447 420.762 437.473C420.541 471.856 375.388 465.025 345.824 464.245L353.67 436.17L388.436 434.445C388.203 429.732 399.759 417.183 372.952 417.4C359.133 417.513 350.981 421.16 346.13 410.456L346.126 410.452ZM484.473 418.353L484.332 383.957C469.379 384.118 495.904 418.091 470.175 420.874L469.958 376.008L467.277 375.996L466.863 421.767L455.732 422.897L455.483 383.704L453.047 383.712L452.862 423.271C434.565 426.069 445.635 421.867 440.044 412.675L430.767 428.14L427.249 425.679L427 378.726L424.54 378.722L424.307 421.164L420.436 422.177L410.082 379.687L409.945 406.728L399.253 403.592L398.417 390.23C392.649 390.576 398.79 411.742 386.591 402.611C380.562 398.095 388.311 384.753 382.149 382.011L381 403.459L376.646 405.651L370.094 394.09L358.992 405.876L356.05 403.158L353.457 383.471C353.212 389.575 354.555 400.701 350.961 405.441L341.744 396.792L329.734 405.614C325.694 400.761 327.133 391.649 326.775 385.481L325.163 385.574C321.755 393.539 328.873 402.667 319.443 403.596C306.484 404.87 317.976 391.814 311.509 386.848C304.326 394.854 319.423 406.101 298.815 402.9L295.904 387.757L295.37 403.523L269.805 406.141L269.749 392.285L258.337 421.871L255.696 393.193C244.634 404.818 266.457 430.983 241.925 430.271L241.314 403.785L238.822 403.805L238.5 429.805C225.159 430.77 227.093 430.532 227.491 416.704C227.667 410.52 229.307 398.461 225.826 395.196L224.231 429.157L213.189 429.427L212.984 403.777L210.355 403.757L209.893 429.374C185.301 428.94 207.726 404.891 196.656 397.11L195.88 428.554L184.662 427.887L184.416 396.788L181.96 396.792L181.631 427.746L170.127 426.966L170.074 405.526L167.663 405.498L167.124 426.371L156.054 426.242L155.897 399.044L153.51 399.008L152.854 425.583L141.965 424.807L140.144 407.601C135.281 412.937 143.838 430.231 130.393 423.616C123.161 420.058 130.943 407.17 126.249 400.866L124.086 422.792C101.275 421.083 120.838 411.569 110.865 405.051L110.162 420.963C87.9014 418.184 105.178 413.013 97.2993 402.627L95.9446 418.534L92.7651 420.79L82.1895 403.507L81.4781 414.843C68.2776 410.757 72.4982 404.022 72.5384 388.803C72.5706 377.214 72.4219 365.577 72.4822 354.005C206.299 383.567 374.379 378.581 508.188 353.92C507.959 365.573 507.959 377.146 507.975 388.803C507.999 404.139 512.312 411.469 498.561 414.911L498.638 362.545C492.914 364.351 495.619 387.323 495.623 393.435C495.639 410.777 500.72 416.403 484.477 418.329L484.473 418.353ZM618.414 367.109L618.832 359.039L633.608 357.748C631.265 360.676 623.519 365.867 618.414 367.109V367.109ZM613.86 343.305L615.785 355.139C606.062 356.381 570.408 359.168 568.728 350.314C566.959 340.997 579.906 343.019 587.097 343.072C595.969 343.14 605.017 342.895 613.86 343.305ZM616.826 342.931C626.53 343.289 642.122 341.178 650.169 344.258L649.43 346.94C642.725 357.604 627.523 355.79 619.52 355.328C617.924 352.517 617.136 346.896 616.822 342.931H616.826ZM73.3142 344.809C107.979 319.967 443.268 317.631 507.368 344.294C504.526 349.771 493.497 351.315 486.153 352.734C461.939 357.411 430.453 361.17 406.472 362.123C367.699 363.667 330.043 365.199 290.671 365.248C259.161 365.284 83.8657 363.193 73.3142 344.805V344.809ZM615.552 358.235C615.508 372.996 613.245 370.921 599.872 376.084C577.338 384.782 537.54 396.503 526.542 370.628C505.929 322.134 603.863 327.149 611.372 339.015C601.91 345.521 563.41 330.546 565.974 350.378C567.707 363.78 602.633 358.134 615.552 358.231V358.235ZM516.465 349.22C512.57 342.818 515.44 343.767 509.668 337.221L528.166 334.31C526.63 337.442 524.826 338.492 522.751 341.853C520.239 345.927 520.496 347.567 516.465 349.22V349.22ZM611.376 332.706L663.768 332.883C662.132 336.196 657.364 340.997 654.261 342.875C643.464 340.004 644.071 340.136 631.104 340.144C618.483 340.152 614.732 342.859 611.38 332.706H611.376ZM499.723 332.368C500.402 330.699 498.581 328.853 508.325 327.394C521.943 325.351 534.702 319.947 540.683 327.394C535.594 330.02 528.471 331.483 521.517 332.557C511.283 334.141 507.883 336.924 499.719 332.368H499.723ZM581.438 309.239C587.322 312.162 595.326 317.201 601.66 321.033C612.538 327.611 620.782 323.594 617.964 309.597C631.321 311.841 640.422 310.783 641.326 325.862L568.069 325.934C571.264 324.559 578.938 313.127 581.438 309.239V309.239ZM459.511 315.049L466.529 327.225L444.827 324.889C447.114 322.07 455.853 316.292 459.511 315.049ZM644.711 313.542L677.398 317.727L670.416 327.221L649.711 325.536L644.715 313.542H644.711ZM421.119 322.999L448.147 303.839C452.706 306.079 454.94 308.604 457.079 312.375C452.991 315.48 446.568 319.931 442.902 322.195C436.985 325.85 428.435 323.377 421.119 322.995V322.999ZM583.472 306.585L585.216 300.976C590.932 302.705 593.786 306.111 602.324 307.687C608.522 308.829 619.737 309.171 615.154 318.355C611.589 325.496 602.814 318.499 599.241 316.396C595.04 313.924 586.732 309.508 583.476 306.585H583.472ZM404.39 322.295C405.861 319.485 419.303 310.667 422.446 308.692C430.324 303.754 433.645 297.494 444.916 301.076C442.6 304.655 431.615 311.334 427.044 314.418C416.481 321.543 419.946 322.36 404.39 322.295V322.295ZM416.919 298.736C409.045 299.179 400.511 298.849 392.564 298.837C382.262 298.821 378.672 301.221 375.806 291.048L413.486 291.313L416.915 298.736H416.919ZM459.728 310.136C457.674 308.202 452.878 303.477 451.58 300.851C463.848 293.654 477.917 279.994 483.584 285.053C490.679 291.386 479.593 297.067 475.943 299.597C471.477 302.689 464.596 307.993 459.728 310.136ZM683.46 311.097L662.497 308.604C670.344 296.022 668.901 306.207 674.182 281.422L697.701 284.281C698.031 289.572 686.012 306.871 683.46 311.097V311.097ZM411.509 288.109L373.093 287.602L370.742 280.151L407.726 280.107L411.509 288.109ZM580.939 304.1C576.172 304.39 572.426 300.55 568.651 298.358C557.561 291.929 534.095 281.84 544.357 274.216C548.855 270.875 588.729 289.456 580.939 304.1ZM603.674 269.15C607.883 275.937 650.455 278.209 661.782 279.472C678.905 281.382 670.91 310.1 642.178 306.046C624.335 303.529 598.32 303.795 587.869 293.075C575.65 280.541 579.476 253.09 596.994 249.483L603.67 269.15H603.674ZM645.442 274.562C646.861 272.266 657.674 265.491 660.25 264.92C672.792 262.137 671.457 268.028 671.345 277.944L645.442 274.562V274.562ZM674.315 265.993L704.317 269.628C703.702 274.26 701.829 278.314 699.418 281.494L674.657 277.626L674.311 265.993H674.315ZM489.855 265.205C490.277 306.581 492.492 290.421 513.398 311.221C504.37 324.724 471.204 344.447 461.677 311.937C468.736 309.742 494.003 295.21 485.916 283.907C469.676 271.86 456.323 307.301 440.976 295.805L489.851 265.205H489.855ZM574.263 283.493C564.604 279.986 548.332 262.969 540.651 274.124C530.103 289.436 577.555 301.225 577.768 308.664C577.848 311.547 569.11 321.893 566.742 323.296C554.225 330.743 538.882 317.635 529.432 312.126C511.593 301.728 472.466 276.396 507.831 253.922C523.294 244.095 534.798 252.563 546.56 259.145C557.734 265.398 571.847 269.29 574.267 283.489L574.263 283.493ZM686.8 264.69C677.764 263.48 672.438 265.362 671.284 256.781C676.98 254.071 699.771 259.294 707.951 260.159L706.56 266.367C701.07 267.413 693.139 265.535 686.8 264.686V264.69ZM150.246 66.3948L152.022 67.4764L151.829 248.663L47.251 246.998L150.246 66.3907V66.3948ZM683.042 250.078C686.502 245.562 692.721 242.157 698.421 238.433C702.955 235.47 710.21 229.68 714.298 228.035C714.845 235.397 711.492 246.475 709.873 253.403L683.042 250.074V250.078ZM830.967 248.606C832.483 240.58 859.45 190.201 863.844 186.353C868.824 199.675 862.919 234.151 860.202 248.614L830.963 248.606H830.967ZM647.038 226.487C642.021 228.727 636.647 226.117 637.954 220.037C638.902 215.626 655.354 206.028 659.776 203.221C670.601 196.358 672.856 189.301 680.694 203.495L647.038 226.487ZM683.166 206.241C703.795 232.687 685.465 238.634 667.944 250.742C655.338 259.451 634.175 278.716 614.547 265.201C572.422 236.202 655.053 188.243 668.322 192.156C665.524 201.911 629.171 210.005 635.558 225.502C646.105 238.297 671.296 211.794 683.166 206.237V206.241ZM675.746 193.072C677.788 190.374 687.294 184.874 690.984 182.328C694.928 179.614 702.886 171.878 708.12 177.451C713.816 183.514 703.493 188.73 699.192 191.657C695.338 194.287 687.375 200.342 683.202 201.529C680.296 198.4 677.744 196.43 675.742 193.072H675.746ZM867.759 248.224C868.941 228.156 874.44 214.637 871.369 190.398C868.482 167.599 876.365 161.934 886.45 145.009C892.455 134.929 929.946 69.5352 933.918 67.006L933.825 248.618L867.759 248.228V248.224ZM665.456 187.282C670.018 183.329 703.984 160.325 708.679 159.26C713.45 168.275 715.223 190.575 715.673 202.297C716.071 212.671 717.707 217.934 710.339 222.486C705.555 225.441 699.373 230.335 694.369 231.867C695.864 216.724 689.485 214.203 685.896 204.653C693.87 196.064 713.559 192.349 712.067 177.925C697.428 158.616 679.372 200.439 665.456 187.278V187.282ZM573.198 266.226C552.352 260.629 531.956 228.481 502.183 249.451C485.2 261.413 460.287 274.658 440.916 287.771C424.387 298.957 423.543 306.549 414.366 287.16C408.94 275.692 404.647 263.83 401.355 250.323C394.345 221.545 394.871 188.766 402.794 160.414C417.578 107.509 452.119 70.0257 491.205 48.5415C541.897 20.68 600.853 27.2463 640.281 62.1888L638.657 60.2225L579.215 109.351L581.824 112.508C584.139 111.699 609 85.9971 616.055 80.7538C633.142 68.0514 639.811 59.7842 655.363 73.8296C671.192 88.1283 700.081 122.214 706.183 151.375C703.051 155.054 641.644 194.657 632.073 200.994C619.604 209.253 604.032 217.001 598.923 230.431C591.692 249.451 598.823 236.672 585.393 248.148C576.478 255.768 578.998 258.498 573.19 266.226H573.198ZM790.972 160.502C775.959 99.2222 741.169 79.8169 709.877 48.2319C754.064 53.8814 765.359 64.0907 789.115 85.9529C800.242 96.1944 827.326 136.063 830.264 160.538L790.972 160.506V160.502ZM684.766 375.461C724.054 354.395 769.668 282.343 770.617 210.451C771.144 170.712 760.986 139.428 745.579 109.838C725.557 71.3768 708.783 66.8974 687.584 42.5985C729.693 46.9613 773.282 117.843 788.633 163.297L834.175 163.052C829.717 123.469 787.978 77.6335 766.891 62.4059C789.433 65.2367 815.556 90.8223 825.215 101.985C833.705 111.796 838.367 118.692 845.691 131.306C855.399 148.021 849.064 149.899 840.217 163.675L784.243 256.073C777.595 267.811 789.509 281.096 802.472 281.032L847.444 281.341C842.741 301.47 801.387 340.816 783.395 348.496L807.38 326.023L771.373 353.084L792.693 328.564L754.128 360.318L778.664 331.628L739.063 365.352L764.575 334.495L726.18 368.271L724.275 366.184L749.755 337.265C742.52 330.888 721.493 377.226 708.229 367.652L734.312 338.367C724.146 341.568 717.96 367.137 684.766 375.461V375.461ZM360.102 251.083C341.246 163.454 379.681 87.9473 451.255 49.0924C463.301 42.5543 514.982 23.1409 529.701 29.7514C506.601 42.3492 493.227 41.5731 468.836 59.6877C450.189 73.5361 438.416 85.9449 424.568 105.809C399.912 141.181 385.482 198.356 398.385 250.412L387.037 251.956L404.402 262.213L381.514 266.391C389.083 274.256 402.115 258.438 406.46 277.835L366.131 275.406L365.677 269.877L373.998 266.874L358.988 256.512L380.799 253.472L360.102 251.091V251.083ZM385.277 320.228C366.469 322.094 367.273 316.026 359.712 302.403C354.703 293.376 350.274 283.082 346.644 272.612C338.874 250.219 334.73 223.982 336.177 198.143C339.228 143.686 360.335 106.536 386 76.4714C437.069 16.6429 541.933 -16.6711 635.867 36.571C803.875 131.8 753.164 412.687 515.142 406.149L514.994 394.175C620.496 394.38 685.325 349.968 712.598 268.804C747.106 166.116 690.832 84.3244 631.558 47.8177C511.328 -26.2249 354.615 61.7425 348.248 196.498C345.261 259.745 362.521 279.644 385.273 320.224L385.277 320.228ZM601.431 403.254C671.939 381.617 739.356 307.687 741.672 212.775C743.34 144.398 709.659 80.991 660.283 44.5648C644.908 33.2215 617.932 22.6905 607.565 14.7209C650.238 17.9337 701.234 60.886 718.129 81.6906C744.976 114.747 764.186 155.91 763.538 212.775C762.469 306.774 684.055 394.617 601.431 403.254V403.254ZM24.3432 281.052L151.809 281.048C153.071 334.218 153.996 323.365 132.378 325.436C122.406 326.389 111.456 327.965 101.773 329.642C63.1566 336.324 64.057 331.733 65.5121 401.581L66.0588 414.67C80.1757 434.296 218.185 435.599 251.303 437.605C261.147 454.385 256.452 471.12 289.513 471.124L390.253 471.129C415.038 471.116 426.956 457.618 427.82 433.198C441.471 429.198 473.005 428.245 490.643 424.445C505.226 421.304 509.848 415.82 516.006 413.805C523.6 411.32 574.251 418.176 616.839 406.994C638.886 401.203 652.476 391.577 669.077 386.297C770.384 354.057 807.975 372.312 855.676 281.176L933.966 281.321L933.958 332.078C933.922 371.617 911.709 352.646 884.308 360.559L883.367 382.952C943.746 383.197 1009.04 384.158 1068.35 382.876L1068.55 360.965C1057.18 355.573 1034.78 364.021 1029.22 349.674C1026.66 343.068 1027.62 296.332 1027.56 281.522L1084.81 281.056L1085.01 248.872L1028 248.566L1027.58 0.908761L951.857 0.808236C937.178 0.844425 873.117 117.614 856.906 136.356C846.049 125.56 840.293 96.9343 798.043 68.928C773.443 52.6228 734.416 46.6235 702.01 38.7625C663.667 29.4579 642.753 14.6887 607.513 7.09306C575.702 0.237254 521.393 0.470472 489.734 7.66806C367.719 35.413 300.169 162.44 340.586 276.339C346.097 291.864 357.871 309.332 361.135 319.71L245.921 318.769C244.891 273.641 242.689 280.963 260.568 281.024C306.142 281.181 303.895 284.747 303.506 270.895C303.317 264.236 304.221 254.871 302.774 249.407C234.625 245.116 245.961 259.724 245.933 223.19L245.816 1.05352C227.507 0.3418 185.1 -0.723765 170.187 0.727816C160.206 1.7009 145.398 28.4968 139.051 37.906C103.433 90.7057 67.3571 149.642 33.303 204.339C24.4638 218.533 15.8297 232.639 7.76635 247.147C2.4886 256.64 -3.22327 260.171 2.21929 268.285C10.5921 280.766 6.8941 281.116 24.3553 281.048L24.3432 281.052Z" fill="#3F65FF"/>
<path fill-rule="evenodd" clip-rule="evenodd" d="M727.084 440.143C723.017 427.006 734.774 429.35 745.735 429.39C756.05 429.427 766.698 429.101 776.96 429.386L779.102 441.94C769.097 441.932 734.629 443.376 727.088 440.143H727.084ZM808.341 440.862C800.334 442.708 790.598 442.193 782.073 441.703L779.962 429.395C793.364 429.37 815.624 425.056 808.341 440.862ZM724.399 441.566L780.967 445.362L772.651 473.179L770.038 472.395C764.346 475.174 720.934 473.682 710.922 473.485C693.332 473.143 679.11 460.585 682.41 441.377C688.094 408.333 769.749 416.6 775.227 426.552C756.701 428.627 718.008 417.854 724.399 441.562V441.566ZM792.057 426.712C775.714 426.753 770.171 419.495 778.162 419.495L799.003 419.479C867.224 419.366 847.098 473.437 814.057 473.437L774.303 473.392L782.093 444.952C800.036 444.787 787.644 446.399 811.315 443.022C813.12 440.187 812.972 431.401 811.179 428.55L792.057 426.708V426.712ZM704.832 413.025C666.83 417.677 665.817 471.671 701.395 479.496C710.126 481.418 810.962 481.442 821.859 479.918C858.337 474.816 860.443 420.339 823.27 413.258C810.881 410.898 719.154 411.276 704.836 413.029L704.832 413.025Z" fill="#3F65FF"/>
<path fill-rule="evenodd" clip-rule="evenodd" d="M101.436 346.433C103.265 342.416 105.118 342.678 110.219 341.572C113.675 340.824 117.325 339.988 120.923 339.332C184.509 327.768 450.636 326.381 478.612 344.813C468.953 359.039 316.465 359.972 290.663 359.948C244.526 359.908 139.405 359.803 101.436 346.433V346.433ZM482.182 345.231C471.803 328.664 318.109 328.198 289.505 328.162C269.082 328.134 96.3067 329.573 98.8391 345.705C101.986 365.73 471.417 370.599 482.182 345.235V345.231Z" fill="#3F65FF"/>
<path fill-rule="evenodd" clip-rule="evenodd" d="M705.905 441.188C702.979 434.501 703.196 429.362 712.509 429.587C719.27 436.717 716.533 443.207 705.905 441.188ZM706.263 427.919C695.056 433.448 703.911 448.104 713.795 443.834C724.676 439.133 717.316 422.466 706.263 427.919Z" fill="#3F65FF"/>
<path fill-rule="evenodd" clip-rule="evenodd" d="M546.676 352.034C545.679 335.818 566.022 343.812 555.752 354.93C550.072 355.975 550.04 354.821 546.676 352.034ZM549.859 340.84C538.062 344.668 544.373 360.848 555.704 357.708C565.97 354.861 561.416 337.092 549.859 340.84Z" fill="#3F65FF"/>
<path fill-rule="evenodd" clip-rule="evenodd" d="M628.716 239.29L621.79 239.607L619.825 236.889C617.28 221.034 638.182 226.121 628.72 239.29H628.716ZM622.976 225.092C611.203 228.69 616.48 245.373 627.924 242.064C639.195 238.807 633.845 221.77 622.976 225.092Z" fill="#3F65FF"/>
<path fill-rule="evenodd" clip-rule="evenodd" d="M526.883 273.951C520.416 268.004 520.934 260.565 533.013 262.507C534.509 265.483 535.148 266.013 534.694 270.686C531.904 273.701 531.598 274.16 526.883 273.951ZM525.678 259.845C513.647 265.157 523.161 281.056 533.142 275.817C542.391 270.959 536.39 255.112 525.678 259.845Z" fill="#3F65FF"/>
<path fill-rule="evenodd" clip-rule="evenodd" d="M281.651 423.56C283.862 421.401 285.228 420.396 289.879 420.239C298.73 429.009 291.483 435.028 282.061 431.019L281.655 423.564L281.651 423.56ZM283.81 418.759C272.575 423.813 281.245 439.696 292.034 434.224C301.343 429.503 295.012 413.717 283.81 418.759Z" fill="#3F65FF"/>
</g>
<defs>
<clipPath id="clip0_309_2342">
<rect width="1085" height="481" fill="white"/>
</clipPath>
</defs>
</svg>
