<svg width="276" height="260" viewBox="0 0 276 260" fill="none" xmlns="http://www.w3.org/2000/svg">
<g opacity="0.3">
<path d="M38.8332 24.4624C30.7461 26.1863 25.6525 33.9756 27.3138 42.0784C27.5019 42.9404 37.6891 73.3923 38.6608 75.9313C39.5228 78.2038 41.6856 80.9466 43.7701 82.4355C45.6821 83.799 47.9547 84.708 50.3526 85.0685L51.528 85.2565L51.6064 86.9022C51.7631 90.7263 53.1737 94.0175 55.8223 96.7446C57.7658 98.7507 60.054 100.099 62.734 100.772C66.6208 101.76 70.5546 101.211 74.0026 99.1895C75.4602 98.3432 77.6073 96.3371 78.626 94.8795C79.441 93.7354 89.926 72.405 89.926 71.9034C89.926 71.2452 88.7976 70.775 88.3901 71.2765C88.2961 71.3862 87.6848 72.5774 87.0266 73.8939C86.3527 75.226 85.8041 76.3388 85.7884 76.3545C85.7728 76.3858 81.3844 74.27 76.0401 71.6527C70.7114 69.0353 65.4767 66.4964 64.411 65.9792C62.828 65.2269 62.5146 65.0075 62.5929 64.7724C62.7183 64.3649 69.2538 51.0588 69.818 50.0558C72.2159 45.8085 77.4192 43.2068 82.3718 43.7867C87.6221 44.4136 91.9948 48.081 93.421 53.0649C94.377 56.3719 94.0009 59.6631 92.2769 63.0797C91.5403 64.5373 91.4933 65.0075 92.0418 65.3679C92.8255 65.8851 93.1546 65.603 94.0949 63.644C95.3174 61.0893 95.7562 59.3026 95.7562 56.7323C95.7562 55.0554 95.6779 54.4284 95.3487 53.1276C94.6278 50.3692 93.3897 48.1907 91.4306 46.216C87.1676 41.9687 80.8516 40.6992 75.2564 43.0031C72.5921 44.1002 70.1315 46.1063 68.6269 48.4101C68.2351 49.0371 67.0283 51.3409 65.9469 53.5664C64.8655 55.7763 63.9565 57.5943 63.9094 57.5943C63.8624 57.5943 62.0287 52.2813 59.8502 45.7928C57.656 39.32 55.6343 33.4898 55.3522 32.8629C54.5685 31.1389 53.5655 29.7284 52.1236 28.3492C49.9921 26.2961 47.6099 25.0422 44.7575 24.4467C43.3939 24.1489 40.1967 24.1646 38.8332 24.4624ZM44.444 26.3431C48.2838 27.1267 51.7161 29.7597 53.4715 33.2547C53.8633 34.0383 59.0509 49.1468 59.0509 49.5072C59.0509 49.6796 34.6486 58.0175 34.5389 57.8921C34.5076 57.8608 33.2694 54.2247 31.7962 49.8364C28.8184 40.9343 28.6617 40.2917 28.9594 37.6274C29.602 32.0322 33.6612 27.5499 39.225 26.3274C40.5415 26.0453 43.0021 26.0453 44.444 26.3431ZM61.2294 55.8233L62.7026 60.1803L57.7971 70.2108C53.1267 79.7711 51.9982 82.2631 51.9982 83.0153C51.9982 83.3288 51.9512 83.3445 50.9168 83.2348C49.6003 83.1251 48.033 82.6549 46.6225 81.9496C45.2276 81.26 44.7731 80.9466 43.4723 79.6927C42.2185 78.5016 41.3408 77.2635 40.6356 75.7119C40.0557 74.4267 35.1188 59.8355 35.2285 59.7415C35.2755 59.7101 39.8989 58.1429 45.4941 56.2621C51.1049 54.3658 56.5276 52.5321 57.562 52.1716C58.5964 51.7954 59.5211 51.4977 59.5995 51.4977C59.6935 51.482 60.4144 53.4411 61.2294 55.8233ZM73.4697 72.4833C79.7231 75.5395 84.8638 78.0471 84.8951 78.0785C84.9891 78.1412 78.2186 91.9644 77.5133 93.1399C76.1811 95.3654 74.5355 96.87 72.1376 98.0297C69.9121 99.1112 68.815 99.3619 66.3387 99.3306C64.6147 99.3306 64.0975 99.2679 62.9221 98.9074C58.5807 97.6066 55.3365 94.4564 54.0513 90.3031C53.2677 87.7485 53.2834 84.9901 54.0984 82.4668C54.3021 81.8399 56.0731 78.0471 58.0322 74.0193C60.9943 67.9383 61.6526 66.7158 61.8563 66.8255C61.9974 66.9039 67.2164 69.4428 73.4697 72.4833Z" fill="#5FDFFF"/>
<path d="M34.4605 34.9631C33.9746 35.5743 33.3791 37.6588 33.2537 39.0693C33.1283 40.6052 33.3477 41.9374 34.0843 44.1786C34.8366 46.4668 35.2441 46.8429 36.1218 46.0907L36.5449 45.7145L35.8553 43.5517C35.2128 41.5456 35.1501 41.2478 35.1657 39.8059C35.1657 38.4581 35.2441 38.0349 35.6829 36.7968C36.0591 35.6997 36.1374 35.2765 36.0277 35.0414C35.6986 34.4302 34.915 34.3989 34.4605 34.9631Z" fill="#5FDFFF"/>
<path d="M36.0591 47.1093C35.4636 47.3287 35.3382 47.7989 35.6203 48.6609C35.7613 49.0684 35.9808 49.4602 36.1061 49.5072C36.6233 49.711 37.1092 49.6013 37.36 49.2095C37.595 48.8647 37.595 48.7706 37.36 48.0654C37.0779 47.219 36.639 46.8899 36.0591 47.1093Z" fill="#5FDFFF"/>
<path d="M77.7014 48.8646C75.8363 49.6482 74.034 51.1685 72.9369 52.8925C72.5764 53.4567 71.6204 55.259 70.8211 56.9203C69.3635 59.8982 69.3479 59.9452 69.6143 60.337C69.9591 60.8542 70.2569 60.9639 70.7427 60.7445C71.0405 60.6191 71.5264 59.7571 72.7959 57.1711C74.3945 53.8955 74.5198 53.7075 75.6483 52.5634C76.5573 51.6387 77.1215 51.2312 78.0932 50.7767C78.7828 50.4475 79.394 50.1028 79.4567 50.0087C79.7075 49.6482 79.5821 48.99 79.2373 48.7549C78.7828 48.4415 78.7358 48.4415 77.7014 48.8646Z" fill="#5FDFFF"/>
<path d="M192.102 151.948C184.015 153.672 178.922 161.461 180.583 169.564C180.771 170.426 190.958 200.878 191.93 203.417C192.792 205.689 194.955 208.432 197.039 209.921C198.951 211.284 201.224 212.193 203.622 212.554L204.797 212.742L204.875 214.388C205.032 218.212 206.443 221.503 209.091 224.23C211.035 226.236 213.323 227.584 216.003 228.258C219.89 229.245 223.824 228.697 227.272 226.675C228.729 225.829 230.876 223.823 231.895 222.365C232.71 221.221 243.195 199.89 243.195 199.389C243.195 198.731 242.067 198.26 241.659 198.762C241.565 198.872 240.954 200.063 240.296 201.379C239.622 202.712 239.073 203.824 239.057 203.84C239.042 203.871 234.653 201.755 229.309 199.138C223.98 196.521 218.746 193.982 217.68 193.465C216.097 192.712 215.784 192.493 215.862 192.258C215.987 191.85 222.523 178.544 223.087 177.541C225.485 173.294 230.688 170.692 235.641 171.272C240.891 171.899 245.264 175.566 246.69 180.55C247.646 183.857 247.27 187.149 245.546 190.565C244.809 192.023 244.762 192.493 245.311 192.853C246.094 193.371 246.424 193.089 247.364 191.129C248.586 188.575 249.025 186.788 249.025 184.218C249.025 182.541 248.947 181.914 248.618 180.613C247.897 177.855 246.659 175.676 244.7 173.701C240.437 169.454 234.121 168.185 228.525 170.489C225.861 171.586 223.401 173.592 221.896 175.896C221.504 176.523 220.297 178.826 219.216 181.052C218.135 183.262 217.225 185.08 217.178 185.08C217.131 185.08 215.298 179.767 213.119 173.278C210.925 166.805 208.903 160.975 208.621 160.348C207.838 158.624 206.835 157.214 205.393 155.835C203.261 153.782 200.879 152.528 198.027 151.932C196.663 151.634 193.466 151.65 192.102 151.948ZM197.713 153.829C201.553 154.612 204.985 157.245 206.74 160.74C207.132 161.524 212.32 176.632 212.32 176.993C212.32 177.165 187.918 185.503 187.808 185.378C187.777 185.346 186.538 181.71 185.065 177.322C182.087 168.42 181.931 167.777 182.228 165.113C182.871 159.518 186.93 155.035 192.494 153.813C193.811 153.531 196.271 153.531 197.713 153.829ZM214.498 183.309L215.972 187.666L211.066 197.696C206.396 207.257 205.267 209.749 205.267 210.501C205.267 210.814 205.22 210.83 204.186 210.72C202.869 210.611 201.302 210.14 199.892 209.435C198.497 208.745 198.042 208.432 196.741 207.178C195.488 205.987 194.61 204.749 193.905 203.197C193.325 201.912 188.388 187.321 188.498 187.227C188.545 187.196 193.168 185.628 198.763 183.748C204.374 181.851 209.797 180.018 210.831 179.657C211.865 179.281 212.79 178.983 212.868 178.983C212.963 178.967 213.683 180.927 214.498 183.309ZM226.739 199.969C232.992 203.025 238.133 205.533 238.164 205.564C238.258 205.627 231.488 219.45 230.782 220.625C229.45 222.851 227.805 224.355 225.407 225.515C223.181 226.597 222.084 226.847 219.608 226.816C217.884 226.816 217.367 226.753 216.191 226.393C211.85 225.092 208.606 221.942 207.32 217.789C206.537 215.234 206.552 212.476 207.367 209.952C207.571 209.325 209.342 205.533 211.301 201.505C214.263 195.424 214.922 194.201 215.125 194.311C215.266 194.389 220.485 196.928 226.739 199.969Z" fill="#5FDFFF"/>
<path d="M187.73 162.449C187.244 163.06 186.648 165.144 186.523 166.555C186.397 168.091 186.617 169.423 187.353 171.664C188.106 173.952 188.513 174.329 189.391 173.576L189.814 173.2L189.124 171.037C188.482 169.031 188.419 168.733 188.435 167.292C188.435 165.944 188.513 165.521 188.952 164.282C189.328 163.185 189.406 162.762 189.297 162.527C188.968 161.916 188.184 161.884 187.73 162.449Z" fill="#5FDFFF"/>
<path d="M189.328 174.595C188.733 174.814 188.607 175.285 188.889 176.147C189.03 176.554 189.25 176.946 189.375 176.993C189.892 177.197 190.378 177.087 190.629 176.695C190.864 176.35 190.864 176.256 190.629 175.551C190.347 174.705 189.908 174.376 189.328 174.595Z" fill="#5FDFFF"/>
<path d="M230.97 176.35C229.105 177.134 227.303 178.654 226.206 180.378C225.845 180.942 224.889 182.745 224.09 184.406C222.633 187.384 222.617 187.431 222.883 187.822C223.228 188.34 223.526 188.449 224.012 188.23C224.31 188.105 224.795 187.243 226.065 184.657C227.664 181.381 227.789 181.193 228.917 180.049C229.826 179.124 230.391 178.717 231.362 178.262C232.052 177.933 232.663 177.588 232.726 177.494C232.977 177.134 232.851 176.475 232.506 176.24C232.052 175.927 232.005 175.927 230.97 176.35Z" fill="#5FDFFF"/>
<path d="M179.09 19.0899C175.498 19.7265 173.634 23.5458 175.339 26.8195C176.521 29.0929 179.067 30.1842 181.545 29.4567C183.637 28.8428 185.069 27.1605 185.319 24.978C185.501 23.4776 185.046 22.0226 184.091 20.8859C182.818 19.3855 181.022 18.7489 179.09 19.0899ZM181.5 22.6137C182.864 23.7504 182.545 25.7965 180.909 26.4785C178.317 27.5697 176.362 23.7049 178.817 22.3409C179.704 21.8635 180.727 21.9544 181.5 22.6137Z" fill="#5FDFFF"/>
<path d="M205.984 21.4542C204.711 22.7501 206.03 24.7507 207.712 24.0459C208.69 23.6367 208.917 22.3409 208.189 21.4997C207.735 21.0223 206.462 20.9995 205.984 21.4542Z" fill="#5FDFFF"/>
<path d="M161.971 27.2969C161.312 28.0244 161.403 28.7292 162.335 29.7522L163.153 30.6616L162.335 31.5709C161.88 32.0711 161.516 32.6849 161.516 32.935C161.516 33.4351 162.448 34.5264 162.88 34.5264C163.29 34.5264 164.085 34.0717 164.767 33.4351L165.381 32.844L166.131 33.5488C167.177 34.5718 167.95 34.7082 168.655 33.9807C169.451 33.2078 169.405 32.6394 168.428 31.5709L167.609 30.6616L168.291 29.8886C169.246 28.7746 169.382 28.229 168.859 27.5015C168.177 26.5922 167.404 26.6149 166.313 27.6152L165.381 28.4336L164.472 27.6152C163.426 26.6831 162.653 26.5694 161.971 27.2969Z" fill="#5FDFFF"/>
<path d="M187.524 36.436C187.138 36.7315 187.092 37.118 187.024 41.0738L186.956 45.3932L185.319 45.4842C184.387 45.5296 183.318 45.757 182.864 45.9843C181.704 46.5299 180.408 47.8713 179.84 49.0762C179.363 50.0765 179.363 50.3265 179.294 67.8773L179.226 85.6781H175.043C172.747 85.6781 170.314 85.7918 169.655 85.9282C165.972 86.7011 163.108 89.6793 162.403 93.5214C162.016 95.6357 162.676 98.5229 163.903 100.114C164.222 100.546 164.472 100.933 164.472 101.001C164.472 101.069 162.426 101.137 159.902 101.183C155.424 101.251 155.333 101.251 154.901 101.797C154.355 102.456 154.355 103.002 154.855 103.615L155.264 104.093L201.756 104.115H248.247L248.633 103.615C249.225 102.911 249.134 102.16 248.452 101.615C247.951 101.228 247.519 101.137 245.951 101.137H244.064L244.223 100.296C244.314 99.8187 244.382 90.2704 244.382 79.0852C244.382 62.8985 244.314 58.5563 244.087 57.897C243.7 56.8285 242.2 55.328 241.131 54.9416C240.495 54.7142 238.221 54.646 231.878 54.646C223.649 54.646 223.444 54.646 222.535 55.1462C221.33 55.7827 220.261 57.0104 219.943 58.1016C219.761 58.7154 219.716 65.2401 219.761 80.0628L219.829 101.137H218.192H216.533L216.487 75.6296L216.419 50.0992L215.896 49.0307C215.237 47.6894 213.464 46.0753 212.259 45.7115C211.781 45.5524 210.781 45.4387 210.076 45.4387H208.803V41.5966C208.803 37.8682 208.621 36.6633 208.053 36.2996C207.894 36.2086 203.324 36.1177 197.868 36.1177C189.684 36.1177 187.888 36.1632 187.524 36.436ZM191.753 40.1417C191.753 41.4375 192.23 42.0286 193.253 42.0286C194.208 42.0286 194.708 41.3466 194.708 40.0507C194.708 39.0959 194.708 39.0731 195.504 39.0731C196.254 39.0731 196.3 39.1186 196.3 39.8461C196.3 41.5284 197.072 42.2787 198.437 41.9376C199.028 41.8012 199.482 40.8237 199.482 39.7324C199.482 39.1414 199.55 39.0731 200.278 39.0731H201.074V40.1417C201.074 41.4375 201.551 42.0286 202.574 42.0286C203.529 42.0286 204.029 41.3466 204.029 40.0507C204.029 39.0959 204.029 39.0731 204.825 39.0731H205.621V42.2559V45.4387H197.891H190.161V42.2559V39.0731H190.957H191.753V40.1417ZM211.668 48.7579C212.077 48.9625 212.645 49.4626 212.895 49.8719C213.35 50.5994 213.35 50.9404 213.35 75.8797V101.137H200.528H187.683L188.456 100.001C189.661 98.2273 190.002 96.886 189.888 94.4535C189.798 92.0437 189.206 90.5432 187.661 88.7927C186.569 87.5423 185.569 86.9057 183.705 86.2237L182.318 85.7236V68.2638C182.318 51.8725 182.341 50.7358 182.727 50.031C182.955 49.6218 183.455 49.0762 183.864 48.8488C184.569 48.4169 185.092 48.3941 197.732 48.3941C209.349 48.3941 210.986 48.4396 211.668 48.7579ZM240.745 58.2835L241.313 58.8291V64.5354V70.2189H231.992H222.671V64.6718V59.1246L223.262 58.4199L223.853 57.7151H232.015H240.199L240.745 58.2835ZM241.313 79.4262V85.6781H231.992H222.671V79.4262V73.1743H231.992H241.313V79.4262ZM174.702 94.8854V101.137H172.383C170.405 101.137 169.86 101.046 168.905 100.592C167.677 100.023 166.2 98.5456 165.722 97.4089C164.54 94.5899 165.654 91.157 168.223 89.6338C169.587 88.8381 170.292 88.679 172.724 88.6563L174.702 88.6335V94.8854ZM241.313 94.3171V100.023L240.745 100.569L240.199 101.137H232.06C226.013 101.115 223.831 101.046 223.558 100.842C222.739 100.228 222.671 99.6596 222.671 94.1125V88.6335H231.992H241.313V94.3171Z" fill="#5FDFFF"/>
<path d="M193.844 68.9912C193.367 69.3095 193.344 69.4914 193.344 72.0603V74.7657H190.752C186.978 74.7657 187.092 74.6066 187.092 79.4262C187.092 84.2458 186.978 84.0867 190.752 84.0867H193.344V86.792C193.344 90.3613 193.162 90.2249 197.936 90.2249C202.574 90.2249 202.438 90.3386 202.438 86.7011V84.0867H205.007C208.758 84.0867 208.576 84.314 208.576 79.4262C208.576 74.5384 208.758 74.7657 205.007 74.7657H202.438V72.1513C202.438 68.5138 202.574 68.6275 197.936 68.6275C195.072 68.6275 194.253 68.6957 193.844 68.9912ZM199.482 74.1519C199.482 77.7666 199.437 77.7211 202.915 77.7211H205.62V79.4262V81.1312H202.915C199.437 81.1312 199.482 81.0858 199.482 84.7005V87.2695H197.891H196.299V84.7005C196.299 81.0858 196.345 81.1312 192.867 81.1312H190.161V79.4262V77.7211H192.867C196.345 77.7211 196.299 77.7666 196.299 74.1519V71.5829H197.891H199.482V74.1519Z" fill="#5FDFFF"/>
<path d="M224.626 75.7887C223.762 76.6526 224.103 78.0848 225.263 78.4713C226.627 78.926 227.832 76.9708 226.854 75.8796C226.377 75.3567 225.126 75.3113 224.626 75.7887Z" fill="#5FDFFF"/>
<path d="M230.764 75.8797C230.196 76.5163 230.378 77.6757 231.105 78.2441C232.651 79.3808 234.334 77.1528 232.992 75.7888C232.492 75.3114 231.242 75.3568 230.764 75.8797Z" fill="#5FDFFF"/>
<path d="M236.903 75.9479C236.084 77.1074 236.766 78.4714 238.176 78.4714C239.449 78.4714 240.131 77.0392 239.358 75.9479C238.881 75.2432 237.38 75.2432 236.903 75.9479Z" fill="#5FDFFF"/>
<path d="M224.604 80.5631C223.921 81.2451 223.899 81.7907 224.513 82.5864C225.422 83.7231 227.218 83.132 227.218 81.6771C227.218 80.1311 225.672 79.4718 224.604 80.5631Z" fill="#5FDFFF"/>
<path d="M230.855 80.4493C230.219 81.0859 230.242 82.359 230.901 82.8137C231.674 83.3593 232.56 83.2684 233.106 82.5863C233.72 81.7906 233.697 81.245 233.015 80.563C232.356 79.881 231.469 79.8355 230.855 80.4493Z" fill="#5FDFFF"/>
<path d="M237.039 80.5175C236.062 81.5632 236.721 83.1774 238.13 83.1774C239.54 83.1774 240.222 81.4496 239.199 80.4947C238.517 79.8582 237.653 79.8582 237.039 80.5175Z" fill="#5FDFFF"/>
<path d="M51.6041 146.575C48.0121 147.212 46.1479 151.031 47.853 154.305C49.0352 156.578 51.5814 157.67 54.0594 156.942C56.1509 156.328 57.5832 154.646 57.8333 152.464C58.0151 150.963 57.5605 149.508 56.6056 148.371C55.3325 146.871 53.5365 146.234 51.6041 146.575ZM54.0139 150.099C55.378 151.236 55.0597 153.282 53.4229 153.964C50.8312 155.055 48.876 151.19 51.3313 149.826C52.2179 149.349 53.241 149.44 54.0139 150.099Z" fill="#5FDFFF"/>
<path d="M78.4988 148.94C77.2256 150.236 78.5442 152.236 80.2265 151.531C81.2041 151.122 81.4315 149.826 80.704 148.985C80.2493 148.508 78.9762 148.485 78.4988 148.94Z" fill="#5FDFFF"/>
<path d="M34.4854 154.782C33.8262 155.51 33.9171 156.215 34.8492 157.238L35.6676 158.147L34.8492 159.056C34.3945 159.557 34.0308 160.17 34.0308 160.42C34.0308 160.921 34.9629 162.012 35.3948 162.012C35.804 162.012 36.5997 161.557 37.2817 160.921L37.8956 160.33L38.6458 161.034C39.6916 162.057 40.4645 162.194 41.1693 161.466C41.965 160.693 41.9195 160.125 40.9419 159.056L40.1235 158.147L40.8055 157.374C41.7604 156.26 41.8968 155.714 41.3739 154.987C40.6919 154.078 39.9189 154.1 38.8277 155.101L37.8956 155.919L36.9862 155.101C35.9404 154.169 35.1675 154.055 34.4854 154.782Z" fill="#5FDFFF"/>
<path d="M60.0386 163.921C59.6521 164.217 59.6066 164.603 59.5384 168.559L59.4702 172.879L57.8333 172.97C56.9012 173.015 55.8327 173.242 55.3781 173.47C54.2186 174.015 52.9228 175.357 52.3544 176.562C51.877 177.562 51.877 177.812 51.8088 195.363L51.7406 213.164H47.5575C45.2614 213.164 42.8288 213.277 42.1695 213.414C38.4866 214.187 35.6221 217.165 34.9173 221.007C34.5309 223.121 35.1902 226.008 36.4178 227.6C36.7361 228.032 36.9861 228.418 36.9861 228.486C36.9861 228.555 34.9401 228.623 32.4166 228.668C27.938 228.736 27.847 228.736 27.4151 229.282C26.8695 229.941 26.8695 230.487 27.3696 231.101L27.7788 231.578L74.2701 231.601H120.761L121.148 231.101C121.739 230.396 121.648 229.646 120.966 229.1C120.466 228.714 120.034 228.623 118.465 228.623H116.578L116.737 227.782C116.828 227.304 116.897 217.756 116.897 206.571C116.897 190.384 116.828 186.042 116.601 185.382C116.215 184.314 114.714 182.814 113.646 182.427C113.009 182.2 110.736 182.131 104.393 182.131C96.1631 182.131 95.9585 182.131 95.0491 182.632C93.8442 183.268 92.7757 184.496 92.4574 185.587C92.2755 186.201 92.2301 192.726 92.2755 207.548L92.3437 228.623H90.7069H89.0473L89.0018 203.115L88.9336 177.585L88.4107 176.516C87.7514 175.175 85.9782 173.561 84.7733 173.197C84.2959 173.038 83.2956 172.924 82.5908 172.924H81.3177V169.082C81.3177 165.354 81.1358 164.149 80.5675 163.785C80.4083 163.694 75.8388 163.603 70.3826 163.603C62.1983 163.603 60.4023 163.649 60.0386 163.921ZM64.2671 167.627C64.2671 168.923 64.7445 169.514 65.7676 169.514C66.7224 169.514 67.2225 168.832 67.2225 167.536C67.2225 166.581 67.2225 166.559 68.0182 166.559C68.7685 166.559 68.8139 166.604 68.8139 167.332C68.8139 169.014 69.5869 169.764 70.9509 169.423C71.542 169.287 71.9967 168.309 71.9967 167.218C71.9967 166.627 72.0649 166.559 72.7924 166.559H73.5881V167.627C73.5881 168.923 74.0655 169.514 75.0885 169.514C76.0434 169.514 76.5435 168.832 76.5435 167.536C76.5435 166.581 76.5435 166.559 77.3392 166.559H78.1349V169.741V172.924H70.4053H62.6757V169.741V166.559H63.4714H64.2671V167.627ZM84.1822 176.243C84.5914 176.448 85.1598 176.948 85.4098 177.357C85.8645 178.085 85.8645 178.426 85.8645 203.365V228.623H73.0425H60.1977L60.9707 227.486C62.1756 225.713 62.5166 224.372 62.4029 221.939C62.312 219.529 61.7209 218.029 60.175 216.278C59.0837 215.028 58.0834 214.391 56.2192 213.709L54.8324 213.209V195.749C54.8324 179.358 54.8552 178.221 55.2417 177.516C55.469 177.107 55.9691 176.562 56.3784 176.334C57.0831 175.902 57.606 175.88 70.2462 175.88C81.8633 175.88 83.5002 175.925 84.1822 176.243ZM113.259 185.769L113.827 186.315V192.021V197.704H104.506H95.1855V192.157V186.61L95.7766 185.905L96.3677 185.201H104.529H112.714L113.259 185.769ZM113.827 206.912V213.164H104.506H95.1855V206.912V200.66H104.506H113.827V206.912ZM47.2165 222.371V228.623H44.8976C42.9198 228.623 42.3741 228.532 41.4193 228.077C40.1917 227.509 38.7139 226.031 38.2365 224.894C37.0544 222.075 38.1683 218.643 40.7373 217.119C42.1013 216.324 42.8061 216.164 45.2386 216.142L47.2165 216.119V222.371ZM113.827 221.803V227.509L113.259 228.054L112.714 228.623H104.575C98.5274 228.6 96.3449 228.532 96.0721 228.327C95.2537 227.713 95.1855 227.145 95.1855 221.598V216.119H104.506H113.827V221.803Z" fill="#5FDFFF"/>
<path d="M66.3586 196.477C65.8812 196.795 65.8585 196.977 65.8585 199.546V202.251H63.2668C59.4929 202.251 59.6066 202.092 59.6066 206.912C59.6066 211.731 59.4929 211.572 63.2668 211.572H65.8585V214.278C65.8585 217.847 65.6766 217.71 70.4507 217.71C75.0885 217.71 74.9521 217.824 74.9521 214.187V211.572H77.5211C81.2722 211.572 81.0903 211.799 81.0903 206.912C81.0903 202.024 81.2722 202.251 77.5211 202.251H74.9521V199.637C74.9521 195.999 75.0885 196.113 70.4507 196.113C67.5862 196.113 66.7678 196.181 66.3586 196.477ZM71.9967 201.637C71.9967 205.252 71.9512 205.207 75.4295 205.207H78.1349V206.912V208.617H75.4295C71.9512 208.617 71.9967 208.571 71.9967 212.186V214.755H70.4053H68.8139V212.186C68.8139 208.571 68.8594 208.617 65.381 208.617H62.6757V206.912V205.207H65.381C68.8594 205.207 68.8139 205.252 68.8139 201.637V199.068H70.4053H71.9967V201.637Z" fill="#5FDFFF"/>
<path d="M97.1406 203.274C96.2767 204.138 96.6177 205.57 97.7771 205.957C99.1412 206.411 100.346 204.456 99.3685 203.365C98.8911 202.842 97.6407 202.797 97.1406 203.274Z" fill="#5FDFFF"/>
<path d="M103.279 203.365C102.711 204.002 102.892 205.161 103.62 205.729C105.166 206.866 106.848 204.638 105.507 203.274C105.007 202.797 103.756 202.842 103.279 203.365Z" fill="#5FDFFF"/>
<path d="M109.417 203.433C108.599 204.593 109.281 205.957 110.69 205.957C111.963 205.957 112.645 204.525 111.872 203.433C111.395 202.729 109.895 202.729 109.417 203.433Z" fill="#5FDFFF"/>
<path d="M97.118 208.049C96.436 208.731 96.4133 209.276 97.0271 210.072C97.9365 211.209 99.7325 210.618 99.7325 209.163C99.7325 207.617 98.1865 206.957 97.118 208.049Z" fill="#5FDFFF"/>
<path d="M103.37 207.935C102.733 208.571 102.756 209.844 103.415 210.299C104.188 210.845 105.075 210.754 105.62 210.072C106.234 209.276 106.212 208.73 105.53 208.048C104.87 207.366 103.984 207.321 103.37 207.935Z" fill="#5FDFFF"/>
<path d="M109.554 208.003C108.576 209.049 109.235 210.663 110.645 210.663C112.054 210.663 112.736 208.935 111.713 207.98C111.031 207.344 110.167 207.344 109.554 208.003Z" fill="#5FDFFF"/>
</g>
</svg>
